<?xml version="1.0" encoding="UTF-8"?><svg xmlns="http://www.w3.org/2000/svg" xmlns:xlink="http://www.w3.org/1999/xlink" height="437.2" preserveAspectRatio="xMidYMid meet" version="1.0" viewBox="-5.6 -1.6 368.9 437.2" width="368.9" zoomAndPan="magnify"><g><g id="change1_2"><path d="M133.28,324.71c-0.47,9.71-1.56,20.96-3.72,32.9h-22.43h-3.65H74.43l-2.93-31.46l-2.98-32.03l31.87-4.68 l0.31,3.16l32.08-0.79C132.77,291.82,134.25,305.12,133.28,324.71z" fill="#F2C0A7"/></g><g id="change2_10"><path d="M145.16,416.02c-0.57,5-5.02,8.65-10.25,11.25c-11.5,5.73-25.16,5.73-36.66,0 c-2.38-1.18-4.59-2.59-6.36-4.24c-16.44,12.13-49.08,9.77-52.66-6.23c-2.26-10.08,4.99-18.45,10.97-23.44 c4.84-4.04,8.54-9.29,10.55-15.27l3.34-9.96l24.98-9.41l14.74,5.12h12.78h14.47c0,0,2.82,6.84,4.41,16.52 c0.67,4.07,1.99,8,3.8,11.7C142.21,398.06,146.11,407.82,145.16,416.02z M129.55,357.61c2.16-11.94,3.25-23.19,3.72-32.9 c0,0-13.92,5.83-29.31,0.89c-0.66-0.2-1.31-0.43-1.98-0.68c-0.17-0.07-0.36-0.13-0.53-0.2c0,0-15,7.71-29.96,1.44l2.93,31.46 H129.55z" fill="#F0F5FC"/></g><g id="change3_10"><path d="M133.06,332c-0.17,0.08-16.58,7.54-30.8,0.38l0.72,18.17c0.01,0.28-0.2,0.51-0.48,0.52c-0.01,0-0.01,0-0.02,0 c-0.27,0-0.49-0.21-0.5-0.48l-0.72-18.2c-1.99,1.08-7.89,3.87-16.01,3.87c-3.96,0-8.45-0.66-13.26-2.51 c-0.26-0.1-0.39-0.39-0.29-0.65s0.39-0.39,0.65-0.29c15.25,5.86,27.1-0.5,28.87-1.54l-1.33-33.35l-1.54-44.96 c-0.01-0.28,0.21-0.51,0.48-0.52c0.26,0.01,0.51,0.21,0.52,0.48l1.54,44.96l1.33,33.35c13.9,7.38,30.26-0.06,30.43-0.14 c0.25-0.12,0.55-0.01,0.66,0.24C133.42,331.58,133.31,331.88,133.06,332z M102.31,363.39c-0.25-0.11-0.55,0.02-0.65,0.27 c-0.03,0.08-3.18,7.79-4.7,18.26c-0.42,2.9-1.28,5.62-2.56,8.07c-3.03,5.79-7.94,16.88-6.88,26.09c0.52,4.51,4.06,8.42,10.52,11.64 c0.07,0.04,0.15,0.05,0.22,0.05c0.18,0,0.36-0.1,0.45-0.28c0.12-0.25,0.02-0.55-0.23-0.67c-6.14-3.06-9.5-6.71-9.97-10.86 c-1.03-8.95,3.8-19.83,6.78-25.52c1.33-2.55,2.23-5.38,2.67-8.39c1.5-10.34,4.6-17.94,4.63-18.02 C102.68,363.78,102.56,363.49,102.31,363.39z" fill="inherit"/></g><g id="change2_5"><path d="M135.83,360.22c0,7.68-8.67,13.91-19.38,13.91c-8.9,0-16.37-4.31-18.65-10.17 c-2.27,5.87-9.75,10.17-18.65,10.17c-10.7,0-19.38-6.23-19.38-13.91c0-7.68,8.67-13.91,19.38-13.91c8.9,0,16.37,4.31,18.65,10.17 c2.27-5.87,9.75-10.17,18.65-10.17C127.15,346.32,135.83,352.54,135.83,360.22z" fill="#F0F5FC"/></g><g id="change3_6"><path d="M144.49,404.66c0.17,0.22,0.14,0.53-0.08,0.7c-0.35,0.28-8.74,6.93-15.72,8.07c-0.19,0.04-0.37-0.05-0.48-0.2 c-0.04-0.05-3.91-5.17-11.19-5.17c-7.27,0-10.94,5.11-10.98,5.16c-0.12,0.17-0.32,0.25-0.52,0.2c-0.41-0.09-10.01-2.33-16.41-7.76 c-1.44,1.56-7.38,7.22-18.27,7.77c-0.01,0-0.02,0-0.03,0c-0.22,0-0.42-0.15-0.48-0.36c-0.07-0.26-1.93-6.4-11.25-6.4 c-9.27,0-10.37,6.08-10.42,6.34c-0.02,0.15-0.12,0.28-0.25,0.36c-0.13,0.08-0.29,0.08-0.43,0.03c-0.26-0.11-6.33-2.63-8.48-6.33 c-0.14-0.24-0.06-0.54,0.18-0.68c0.24-0.14,0.54-0.06,0.68,0.18c1.64,2.81,5.97,4.99,7.48,5.68c0.56-1.74,2.88-6.57,11.24-6.57 c8.72,0,11.47,5.26,12.07,6.74c11.67-0.73,17.46-7.7,17.52-7.77c0.09-0.11,0.21-0.17,0.35-0.18c0.14-0.01,0.27,0.03,0.37,0.12 c5.58,4.94,14.29,7.34,16.04,7.78c0.91-1.14,4.71-5.31,11.59-5.31c6.94,0,10.89,4.23,11.8,5.33c6.67-1.24,14.89-7.75,14.97-7.82 C144.01,404.41,144.32,404.44,144.49,404.66z M63.63,368.32c-0.1-0.25,0.02-0.55,0.27-0.65c0.26-0.11,0.55,0.02,0.65,0.27 l2.74,6.73h16.79l12.9-10.85c-0.62-2.02-0.57-3.81-0.56-3.93c0-1.56,0.35-3.06,0.98-4.47c-0.98-1.56-8.01-11.66-23.93-8.6 c-0.27,0.05-0.53-0.13-0.59-0.4c-0.05-0.27,0.13-0.53,0.4-0.59c15.33-2.94,22.78,5.89,24.64,8.56c3-5.33,10.23-9.1,18.66-9.1 c11.12,0,20.16,6.55,20.16,14.61c0,0.28-0.22,0.5-0.5,0.5s-0.5-0.22-0.5-0.5c0-7.5-8.59-13.61-19.16-13.61 c-10.56,0-19.16,6.11-19.16,13.61c0,0.07-0.15,4.61,2.63,7.16l2.52,2.29l4.75,4.65h19.34l5.52-6.21c0.18-0.21,0.5-0.22,0.71-0.04 c0.21,0.18,0.23,0.5,0.04,0.71l-5.57,6.28l-2.02,10.61c-0.04,0.24-0.25,0.41-0.49,0.41h-16.08c-0.25,0-0.46-0.18-0.49-0.42 l-1.62-10.58l-4.76-4.67l-2.51-2.27c-0.95-0.87-1.6-1.93-2.04-2.99L84.65,375.5l-6.28,10.02c-0.09,0.15-0.25,0.23-0.42,0.23H64.83 c-0.15,0-0.29-0.07-0.39-0.19c-0.1-0.12-0.13-0.27-0.1-0.42l2.1-9.94L63.63,368.32z M107.7,375.01l1.49,9.75h15.24l1.86-9.75H107.7 z M65.44,384.76h12.23l5.69-9.09h-16L65.44,384.76z M154.2,57c-4.76-5.39-8.56-11.5-11.78-17.94 c-3.27-6.56-10.21-10.96-18.14-10.53c-9.6,0.53-17.45,8.4-17.95,18c-0.58,11,8.16,20.1,19.03,20.1c0.12,0,0.23-0.02,0.35-0.02 c0.19,0.13,0.37,0.26,0.56,0.4c24.82,16.89,7.36,33.81,8.23,44.36c0.87,10.55,12.37,6.43,12.37,6.43 c-1.21,9.15,23.15,10.16,25.62-17.33C174.05,83.16,162.91,66.87,154.2,57z M143.88,296.26c8.61,5.91,14.01-11.81,14.01-11.81 l-10.07-11.49C147.81,272.96,135.26,290.36,143.88,296.26z" fill="inherit"/></g><g id="change2_1"><path d="M176,203.46c-5.93,3.78-20.37,11.26-38.17,8.23c-2.15-0.36-4.35-0.88-6.58-1.57H59.23l-8.22-33.06 c0,0-8.39-5.28-18.52-12.54c-3.74-2.67-7.33-5.73-10.17-9.1c-1.04-1.23-1.63-2.8-1.67-4.41c-0.18-7.76,1.8-31.59,31.13-44.21 c1.56-0.67,3.35-0.58,4.83,0.25c2.49,1.39,6.67,3.77,10.86,6.37c4.79,2.97,9.61,6.23,11.94,8.6l23.65,0.66 c0,0,41.87-3.94,58.86,37.41l9.32,22.7l6.37,15.52C178.4,200.19,177.72,202.36,176,203.46z" fill="#F0F5FC"/></g><g id="change1_8"><path d="M170.95,277.39c0,7.84-5.33,21.17-14.6,25.76c-9.27,4.59-0.7-11.58,0-21.33s-14.23-11.98-14.23-11.98 l-10.87-63l28.55-1.79l1.57,47.04C161.36,252.09,170.95,267.58,170.95,277.39z" fill="#F2C0A7"/></g><g id="change4_4"><path d="M176,203.46c-5.85,3.73-20,11.06-37.48,8.34l0.04,3.78l4.41,13.49l3.12,9.56l0.37,1.13l2.42,7.39 l5.64,17.23l2.52,7.69l4.32,13.2c0,0-18.3,11.82-62.07,11.82c-43.76,0-62.07-11.82-62.07-11.82l4.54-14.74l2.47-8l5.14-16.68 l1.62-5.27l0.69-2.25l2.4-7.78l4.62-14.98l-0.03-7.8v-0.69H70.8v-76.62h8.94v76.62h45v-76.62h8.94v76.62h4.7l0.32-2.67l0.23-1.93 l1.02-8.43c15.7,0.05,25.91-6.48,31.29-11.27l3.62,8.82l0.79,1.93l1.96,4.77C178.4,200.19,177.72,202.36,176,203.46z M61.62,149.78 c9.18-11.61,11.12-26.13,5.85-36.36c-1.24-0.76-2.48-1.51-3.67-2.23h-0.01c-1.13-0.67-2.22-1.31-3.23-1.9 c-1.34-0.77-2.55-1.45-3.53-2c-1.74-0.98-3.85-1.1-5.68-0.3c-1.71,0.75-3.32,1.53-4.84,2.35c-1.43,0.76-2.78,1.56-4.05,2.38 c-12.93,8.3-18.29,19.07-20.44,27.61c-0.8,3.13-1.16,5.96-1.3,8.25c-0.08,1.35-0.09,2.51-0.07,3.43c0.01,0.27,0.03,0.54,0.08,0.81 c0.15,1.19,0.61,2.31,1.33,3.27c0.08,0.12,0.16,0.23,0.26,0.34c2.84,3.37,6.43,6.43,10.17,9.1 C42.57,164.98,53.75,159.72,61.62,149.78z" fill="#2465B2"/></g><g id="change2_9"><path d="M175.66,193.53c-6.83,5.11-18.62,10.88-36.96,10.88l0.23-1.93c17.9-0.09,29.4-5.95,35.94-10.88 L175.66,193.53z M60.48,142.42c-3.27,5.04-7.49,8.99-12.13,11.68c-4.64,2.69-9.69,4.13-14.58,4.13c-4.12,0-8.13-1.01-11.7-3.13 c-0.72-0.95-1.18-2.08-1.33-3.27c0.52,0.42,1.07,0.82,1.64,1.19c11.24,7.29,27.61,2.06,36.48-11.63c3.76-5.8,5.58-12.2,5.58-18.21 c0-5.11-1.32-9.94-3.87-13.87c1.01,0.59,2.1,1.22,3.23,1.9h0.01C68.01,120.18,67.1,132.2,60.48,142.42z M146.47,239.75 c-10.82,4.96-26.85,8.48-45.96,8.48c-20.87,0-38.07-4.19-48.82-9.9l-2.31,7.52c1.2,0.6,2.47,1.18,3.78,1.74 c12.71,5.39,29.52,8.36,47.36,8.36c17.82,0,34.64-2.97,47.36-8.36c0.35-0.14,0.68-0.29,1.02-0.44L146.47,239.75z M154.52,264.38 c-9.83,7.29-29.36,13.14-54.02,13.14c-26.71,0-47.41-6.87-56.27-14.99l-2.47,8c3.11,2.33,6.92,4.46,11.38,6.35 c12.71,5.38,29.52,8.35,47.36,8.35c17.82,0,34.64-2.97,47.36-8.35c3.45-1.47,6.52-3.07,9.18-4.81L154.52,264.38z" fill="#F0F5FC"/></g><g id="change5_2"><path d="M108.8,202.56c-1.43-1.75-4.44-7.02-7.25-13.57c-2.81,6.55-5.82,11.82-7.25,13.57 c-3.5,4.28-8.22,5.33-8-15.99c0.22-21.32,9.66-27.17,9.66-27.17h0.06l-1.67-8.89l-6.22-9.89l14.33-9.37l14.33,9.37l-7.89,10 l-1.78,8.77c0,0,9.44,5.85,9.66,27.17C117.02,207.89,112.3,206.83,108.8,202.56z" fill="#AF2539"/></g><g id="change2_7"><path d="M142.12,132.66c-4.08,6.13-14.91,15.78-40.37,6.75c-25.46,9.03-36.29-0.62-40.37-6.75 c-1.35-2.03-0.4-4.79,1.94-5.52L66,126.3l1.89-0.59l28.88-9.03l2.5-0.78l1.4-0.43c0.71-0.22,1.47-0.22,2.18,0l2.37,0.74l2.43,0.76 l29.38,9.19l1.87,0.58l1.29,0.4C142.51,127.87,143.47,130.63,142.12,132.66z" fill="#F0F5FC"/></g><g id="change4_3"><path d="M137.02,126.16c-0.57,5.82-8.37,10.45-17.87,10.45c-6.59,0-12.35-2.23-15.46-5.54 c1.23-1.7,1.94-3.59,1.94-5.59s-0.7-3.89-1.94-5.6c1.04-1.11,2.38-2.09,3.95-2.9l-2.43-0.76c-1.03,0.66-1.95,1.41-2.74,2.22 c-0.91-0.93-1.99-1.77-3.21-2.53l-2.5,0.78c1.8,0.88,3.33,1.96,4.48,3.19c-1.22,1.71-1.94,3.6-1.94,5.6s0.71,3.89,1.94,5.59 c-3.1,3.32-8.87,5.54-15.46,5.54c-9.74,0-17.7-4.86-17.9-10.89L66,126.3c0.65,6.81,9.28,12.23,19.79,12.23 c7,0,13.15-2.4,16.69-6.01c3.53,3.61,9.68,6.01,16.68,6.01c10.29,0,18.78-5.19,19.74-11.8L137.02,126.16z M101.24,125.47 c0-1.43,0.45-2.78,1.23-4.03c0.78,1.25,1.22,2.6,1.22,4.03c0,1.42-0.44,2.78-1.22,4.02C101.69,128.25,101.24,126.89,101.24,125.47z" fill="#2465B2"/></g><g id="change3_1"><path d="M142.53,132.94c-4.3,6.47-15.32,15.97-40.78,7c-7.45,2.63-13.67,3.67-18.84,3.67c-12.5,0-18.9-6.09-21.94-10.67 c-0.74-1.11-0.91-2.46-0.46-3.71c0.44-1.24,1.41-2.17,2.66-2.56l16.1-5.12c0.26-0.08,0.54,0.06,0.63,0.33 c0.08,0.26-0.06,0.54-0.33,0.63l-16.1,5.12c-0.95,0.3-1.69,1.01-2.02,1.94c-0.34,0.95-0.21,1.98,0.35,2.83 c4.15,6.24,14.84,15.4,39.78,6.55c0.11-0.04,0.23-0.04,0.33,0c24.94,8.84,35.63-0.31,39.78-6.55c0.15-0.23,0.46-0.29,0.69-0.14 C142.62,132.4,142.68,132.71,142.53,132.94z" fill="inherit"/></g><g id="change1_4"><path d="M128.78,99.02c-2.9,4.81-6.79,8.81-11.35,11.62c-0.27,0.17-0.55,0.32-0.83,0.47l0,0.01l0.01,0.04l0.19,0.94 l0.69,3.35l2.27,10.89c-5.04,4.03-10.7,7.2-16.77,9.38l-1.25,0.45l-3.99-1.24c-5.32-1.65-10.15-4.6-14.04-8.6L86,115.45l0.69-3.35 l0.19-0.94l0.01-0.04l0-0.01c-0.28-0.16-0.56-0.31-0.83-0.47c-4.56-2.81-8.45-6.81-11.35-11.62c-11.11-0.73-18.1-13.98-14.55-19.66 c2.19-3.51,6.18-3.6,9.05-3.09c1.09-19.07,15.24-34.16,32.53-34.16s31.45,15.09,32.53,34.16c2.88-0.5,6.86-0.42,9.05,3.09 C146.89,85.04,139.9,98.29,128.78,99.02z" fill="#F2C0A7"/></g><g id="change3_2"><path d="M84.24,79.07c0-2.38,1.93-4.31,4.31-4.31s4.31,1.93,4.31,4.31c0,2.38-1.93,4.31-4.31,4.31S84.24,81.45,84.24,79.07z M119.26,79.07c0-2.38-1.93-4.31-4.31-4.31c-2.38,0-4.31,1.93-4.31,4.31c0,2.38,1.93,4.31,4.31,4.31 C117.34,83.38,119.26,81.45,119.26,79.07z M89.38,70.64c2.31-0.88,3.8-2.57,3.34-3.78s-2.7-1.47-5.01-0.59s-3.8,2.57-3.34,3.78 S87.07,71.52,89.38,70.64z M119.14,70.05c0.46-1.21-1.04-2.9-3.34-3.78c-2.31-0.88-4.55-0.61-5.01,0.59s1.04,2.9,3.34,3.78 C116.43,71.52,118.68,71.26,119.14,70.05z M101.75,120.54c6.74,0,12.53-3.47,15.06-8.44l-0.19-0.94l-0.01-0.04 c-4.45,2.56-9.5,4.01-14.85,4.01c-5.35,0-10.4-1.45-14.85-4.01l-0.01,0.04l-0.19,0.94C89.22,117.07,95.01,120.54,101.75,120.54z M69.21,76.26c8.31,0.31,15.6-12.49,15.6-12.49h20.44c0.67-2.07,2.39-6.6,5.65-10.48c-1.51,3-2.8,6.93-2.4,11.25 c0.02,0.26,0.24,0.45,0.5,0.45c0.02,0,0.03,0,0.05,0c0.27-0.03,0.48-0.27,0.45-0.54c-0.46-4.91,1.46-9.4,3.25-12.41 c-0.42,2.06-1.32,7.34-0.48,11.74h11.18c2.54,10.21,10.68,19.23,16.24,7.71c3.78-7.81-0.82-14.32-4.17-17.69 c-1.7-1.71-3.22-3.6-4.36-5.73c-6.14-11.53-15.84-8.49-15.84-8.49c-7.22-6.22-14.18-4.14-18.22-1.86 c-2.75,1.55-5.68,2.73-8.75,3.44C62.85,47.13,61.39,75.97,69.21,76.26z M51.18,114.62l-0.02-0.02l-1-0.78 c-0.2-0.14-0.4-0.27-0.61-0.39c-2.14-1.29-4.57-1.82-7.09-1.7c-7.34,4.7-12.23,10.21-15.48,15.64c-1.51,2.52-2.67,5.02-3.55,7.42 c-0.57,1.56-1.04,3.09-1.41,4.55c0.68,4.18,2.75,7.71,6.13,9.74c2.51,1.52,5.43,2,8.42,1.56c1.65-0.22,3.32-0.73,4.95-1.49 c4.05-1.86,7.89-5.27,10.66-9.89c4.3-7.19,4.85-15.29,1.96-20.86C53.39,116.94,52.4,115.66,51.18,114.62z M98.68,86.46 c0-1.92,1.6-3.48,3.56-3.48s3.56,1.56,3.56,3.48c0,0.28,0.22,0.5,0.5,0.5s0.5-0.22,0.5-0.5c0-2.47-2.05-4.48-4.56-4.48 c-2.51,0-4.56,2.01-4.56,4.48c0,0.28,0.22,0.5,0.5,0.5S98.68,86.74,98.68,86.46z M140.92,80.29c-0.06-0.02-6.46-2.48-9.42,3.97 c-0.11,0.25,0,0.55,0.25,0.66c0.07,0.03,0.14,0.05,0.21,0.05c0.19,0,0.37-0.11,0.46-0.29c2.55-5.58,7.91-3.54,8.14-3.46 c0.26,0.1,0.55-0.03,0.65-0.28C141.3,80.69,141.17,80.39,140.92,80.29z M62.95,81.22c0.23-0.09,5.59-2.12,8.14,3.46 c0.08,0.18,0.27,0.29,0.46,0.29c0.07,0,0.14-0.01,0.21-0.05c0.25-0.11,0.36-0.41,0.25-0.66c-2.95-6.45-9.35-3.99-9.42-3.97 c-0.26,0.1-0.38,0.39-0.28,0.65C62.4,81.2,62.69,81.32,62.95,81.22z M121.42,240.95c-0.06-0.25-0.31-0.42-0.57-0.37 c-0.26,0.04-0.44,0.28-0.41,0.54l4.69,53.01c0.02,0.26,0.24,0.46,0.5,0.46c0.01,0,0.03,0,0.04,0c0.28-0.02,0.48-0.27,0.45-0.54 l-4.14-46.81l11.58,45.58c0.07,0.27,0.34,0.43,0.61,0.36c0.27-0.07,0.43-0.34,0.36-0.61L121.42,240.95z M77.73,240.58 c-0.26-0.05-0.5,0.12-0.57,0.37l-13.11,51.61c-0.07,0.27,0.09,0.54,0.36,0.61c0.26,0.07,0.54-0.09,0.61-0.36l11.58-45.58 l-4.14,46.81c-0.02,0.28,0.18,0.52,0.45,0.54c0.01,0,0.03,0,0.04,0c0.26,0,0.47-0.2,0.5-0.46l4.69-53.01 C78.17,240.86,77.99,240.63,77.73,240.58z M138.41,207.59c0.02,0,0.04,0,0.06,0c0.25,0,0.47-0.19,0.5-0.44l3.65-31.75 c0.03-0.27-0.17-0.52-0.44-0.55c-0.28-0.03-0.52,0.17-0.55,0.44l-3.65,31.75C137.94,207.31,138.13,207.56,138.41,207.59z M138.56,215.08H58.7c-0.28,0-0.5,0.22-0.5,0.5s0.22,0.5,0.5,0.5h79.86c0.28,0,0.5-0.22,0.5-0.5S138.84,215.08,138.56,215.08z" fill="inherit"/></g><g id="change5_4"><path d="M111.26,93.13c-1.14,3.11-4.74,5.38-9.01,5.38c-4.26,0-7.87-2.27-9.01-5.38c-0.38-1.03,0.4-2.12,1.49-2.12 h15.05C110.86,91.01,111.63,92.1,111.26,93.13z" fill="#AF2539"/></g><g id="change3_5"><path d="M109.41,150.61c0,0.28-0.22,0.5-0.5,0.5H94.36c-0.28,0-0.5-0.22-0.5-0.5s0.22-0.5,0.5-0.5h6.3 c-0.52-4.03,0.55-10.5,0.6-10.79c0.05-0.27,0.3-0.45,0.58-0.41c0.27,0.05,0.46,0.3,0.41,0.58c-0.01,0.07-1.12,6.76-0.57,10.62h7.24 C109.19,150.11,109.41,150.34,109.41,150.61z M107.14,158.89H96.03c-0.26,0-0.48,0.2-0.5,0.47c-1,14.42,5.58,29.88,5.65,30.04 c0.08,0.19,0.27,0.3,0.46,0.3c0.07,0,0.13-0.01,0.2-0.04c0.25-0.11,0.37-0.4,0.26-0.66c-0.06-0.15-6.41-15.07-5.6-29.11h4.92 l2.72,6.33c0.08,0.19,0.27,0.3,0.46,0.3c0.07,0,0.13-0.01,0.2-0.04c0.25-0.11,0.37-0.4,0.26-0.66l-2.55-5.94h4.63 c0.28,0,0.5-0.22,0.5-0.5S107.41,158.89,107.14,158.89z" fill="inherit"/></g><g id="change1_6"><path d="M71.55,57.67c-10.19,8.62-21.21,6.82-21.21,6.82l0,0l-16.14,36.92l15.97,12.41l1,0.78l0.02,0.02 c1.22,1.04,2.21,2.32,2.96,3.78c2.89,5.57,2.34,13.67-1.96,20.86c-2.77,4.62-6.61,8.03-10.66,9.89 c-4.78-3.55-11.47-8.69-18.09-14.36c-9.95-8.52-19.75-18.23-22.63-25.49c-6.46-16.22,28.3-57.05,28.43-57.2l0,0 c0,0,8.21-12.94,15.23-25.32c7.02-12.38,10.34-6,10.34-6s4.6-8.87,8.81-11.36s6.75,2.43,6.75,2.43c1.9-3.32,6.59-4.66,8.57-1.79 c1.98,2.87-1.66,8.17-1.66,8.17s4.66-1.15,4.98,4.09c0.32,5.23-15.89,25.53-15.89,25.53s8.74-5.55,10.91-3.95 C79.44,45.48,81.74,49.05,71.55,57.67z" fill="#F2C0A7"/></g><g id="change3_11"><path d="M66.79,47.59c0.13,0.24,0.05,0.55-0.19,0.68l-2.75,1.54c-0.14,0.08-0.32,0.08-0.47,0.01c-0.08-0.04-8.26-4.06-13.74,0.94 c-0.1,0.09-0.22,0.13-0.34,0.13c-0.14,0-0.27-0.05-0.37-0.16c-0.19-0.2-0.17-0.52,0.03-0.71c5.43-4.95,13.14-1.87,14.61-1.21 l2.53-1.41C66.35,47.27,66.66,47.35,66.79,47.59z M55.11,20.39c-0.22-0.17-0.53-0.13-0.7,0.08c-0.13,0.17-0.14,0.4-0.03,0.57 c0.04,0.27,0.1,2.71-7.53,15.26c-0.14,0.24-0.07,0.54,0.17,0.69c0.08,0.05,0.17,0.07,0.26,0.07c0.17,0,0.33-0.09,0.43-0.24 C51.12,31.2,56.63,21.59,55.11,20.39z M59.23,33.53c0.16,0,0.31-0.08,0.41-0.21C72.14,15.31,71.1,12.03,70.77,11.55 c-0.16-0.23-0.49-0.31-0.71-0.15c-0.23,0.16-0.3,0.44-0.14,0.67c0.05,0.12,1,3.24-11.09,20.68c-0.16,0.23-0.1,0.54,0.13,0.7 C59.04,33.5,59.14,33.53,59.23,33.53z M77.55,17.81c-0.23-0.15-0.54-0.09-0.69,0.14L63.7,37.48c-0.15,0.23-0.09,0.54,0.14,0.69 c0.09,0.06,0.18,0.09,0.28,0.09c0.16,0,0.32-0.08,0.42-0.22L77.68,18.5C77.84,18.28,77.78,17.96,77.55,17.81z" fill="inherit"/></g></g><g><g id="change3_12"><path d="M336.97,238.34v43.7c0,0-5.4,17.72-14.01,11.81s-1.76-26.42-1.76-26.42L336.97,238.34z" fill="inherit"/></g><g id="change1_1"><path d="M350.04,274.98c0,7.84-5.33,21.17-14.6,25.76c-9.27,4.59-0.7-11.58,0-21.33s-14.23-11.98-14.23-11.98 l-10.87-63l28.55-1.79l1.57,47.04C340.45,249.67,350.04,265.16,350.04,274.98z" fill="#F2C0A7"/></g><g id="change2_4"><path d="M362.14,193.68c-1.01,0.66-2.55,1.58-4.49,2.62c-0.52,0.29-1.06,0.58-1.64,0.87 c-0.28,0.15-0.57,0.3-0.87,0.45c-0.3,0.15-0.6,0.31-0.91,0.46c-1.31,0.66-2.73,1.33-4.22,2.01c-0.35,0.16-0.7,0.31-1.05,0.47 c-1.89,0.84-3.89,1.66-5.95,2.44c-0.6,0.22-1.21,0.45-1.83,0.67c-0.09,0.02-0.17,0.05-0.25,0.08c-0.58,0.21-1.16,0.41-1.75,0.6 c-2.57,0.84-5.19,1.57-7.78,2.12c-3.06,0.65-6.07,1.03-8.9,1.03v6.5l-37.77-1.82l-0.02-7.3v7.29h-14.49h-1.15h-36.43l-3.91-30.6 c0,0-0.63-3.42-1.48-8.6l0,0l-22.36-15.96l-14.2-10.14c-2.48-1.77-3.76-4.75-3.41-7.77c2.78-24.33,23.05-36.38,32.04-40.58 c2.55-1.18,5.54-0.97,7.91,0.54l14.83,9.43l8.29,5.27c12.64-3.15,20.1-2.92,20.1-2.92l0,0.16h14.02l0-0.16 c0,0,39.9,5.06,61.19,40.64c4.28,7.16,8.32,14.84,11.46,22.03c0.67,1.52,1.3,3.02,1.88,4.49c1.92,4.89,3.34,9.44,4.03,13.29 c0.02,0.08,0.03,0.16,0.04,0.23C363.23,192.39,362.86,193.22,362.14,193.68z" fill="#F0F5FC"/></g><g id="change4_2"><path d="M242.07,108.51c1.72,11.5-3.06,41.37-37.17,48.52l-10.03-7.16l-2.99-2.14l-1.18-0.84 c-2.48-1.77-3.76-4.75-3.41-7.77c2.78-24.33,23.05-36.38,32.04-40.58c2.55-1.18,5.54-0.97,7.91,0.54l3.17,2.01l2.37,1.51 L242.07,108.51z M363.11,191.71c-0.01-0.05-0.02-0.11-0.03-0.16c-0.01-0.07-0.02-0.15-0.04-0.23c-0.36-2.02-0.92-4.22-1.65-6.57 c-0.21-0.66-0.42-1.33-0.66-2.02c-0.51-1.52-1.09-3.09-1.72-4.7c-0.58-1.47-1.21-2.97-1.88-4.49 c-9.49,10.37-24.65,16.72-34.63,16.71v17.26l8.9-1.03c2.59-0.55,5.21-1.28,7.78-2.12c0.59-0.19,1.17-0.39,1.75-0.6 c0.08-0.03,0.16-0.06,0.25-0.08c0.62-0.22,1.23-0.44,1.83-0.67c2.06-0.78,4.06-1.6,5.95-2.44c0.35-0.16,0.7-0.31,1.05-0.47 c1.49-0.68,2.91-1.35,4.22-2.01c0.31-0.15,0.61-0.31,0.91-0.46c0.3-0.15,0.59-0.3,0.87-0.45c0.57-0.3,1.12-0.59,1.64-0.87 c1.94-1.04,3.48-1.96,4.49-2.62c0.07-0.04,0.13-0.08,0.19-0.12C362.94,193.16,363.24,192.43,363.11,191.71z" fill="#2465B2"/></g><g id="change2_6"><path d="M361.39,184.74c-6.75,5.14-19.53,12.66-38.89,15.38v-2.02c19.38-2.77,31.9-10.43,38.23-15.38 C360.97,183.42,361.18,184.09,361.39,184.74z M230.41,101.09c1.41,6.5,3.43,22.28-6.35,34.46c-9.36,11.66-23.18,12.88-32.18,12.18 l2.99,2.14c0.34,0.01,0.68,0.01,1.03,0.01c9.2,0,21.18-2.44,29.72-13.08c9.53-11.87,8.56-26.56,7.16-34.2L230.41,101.09z" fill="#F0F5FC"/></g><g id="change3_7"><path d="M221.07,128.02c-2.77,4.63-6.61,8.04-10.68,9.9c-1.62,0.76-3.29,1.26-4.93,1.48c-2.98,0.44-5.9-0.05-8.42-1.56 c-3.37-2.03-6.14-6.25-6.82-10.43c0.38-1.52,0.98-2.99,1.73-4.48c1.07-2.15,2.45-4.34,3.92-6.8c3.25-5.43,8.15-10.94,15.48-15.64 c2.53-0.13,4.96,0.41,7.1,1.7c0.42,0.25,0.82,0.53,1.2,0.83c1.41,1.1,2.55,2.52,3.39,4.14 C225.93,112.73,225.38,120.83,221.07,128.02z" fill="inherit"/></g><g id="change1_5"><path d="M309,325.22c-0.47,9.71-1.56,20.96-3.72,32.9h-22.43h-3.65h-29.04l-2.93-31.46l-2.98-32.03l31.87-4.68 l0.31,3.16l32.08-0.79C308.5,292.32,309.97,305.62,309,325.22z" fill="#F2C0A7"/></g><g id="change4_1"><path d="M322.5,220.63h-90.08v-9.82h13.19v-86.49h8.94v86.49h45v-86.49h8.94v86.49h14V220.63z M322.5,220.63h-90.08 l-7.51,70.98c-0.36,3.42,1.79,6.62,5.11,7.52c1.51,0.4,3,0.77,4.45,1.09c25.79,5.69,41.63-1.82,41.63-1.82 c14.98,6.45,31.43,4.85,41.69,2.73c2.14-0.44,4.01-0.91,5.54-1.32c2.68-0.72,4.45-3.25,4.26-6.01L322.5,220.63z" fill="#2465B2"/></g><g id="change5_3"><path d="M284.15,197.65c-1.43-1.75-4.44-7.02-7.25-13.57c-2.81,6.55-5.82,11.82-7.25,13.57 c-3.5,4.28-8.22,5.33-8-15.99c0.22-21.32,9.66-27.17,9.66-27.17h0.06l-1.67-8.89l-6.22-9.89l14.33-9.37l14.33,9.37l-7.89,10 l-1.78,8.77c0,0,9.44,5.85,9.66,27.17C292.37,202.99,287.65,201.93,284.15,197.65z" fill="#AF2539"/></g><g id="change3_9"><path d="M284.76,145.71c0,0.28-0.22,0.5-0.5,0.5h-14.55c-0.28,0-0.5-0.22-0.5-0.5s0.22-0.5,0.5-0.5h6.3 c-0.48-4.3,1.13-13.76,1.2-14.18c0.05-0.27,0.3-0.46,0.58-0.41c0.27,0.05,0.45,0.31,0.41,0.58c-0.02,0.1-1.69,9.94-1.18,14.01h7.24 C284.53,145.21,284.76,145.44,284.76,145.71z M282.48,153.99h-11.11c-0.26,0-0.48,0.2-0.5,0.47c-1,14.42,5.58,29.88,5.65,30.04 c0.08,0.19,0.27,0.3,0.46,0.3c0.07,0,0.13-0.01,0.2-0.04c0.25-0.11,0.37-0.4,0.26-0.66c-0.06-0.15-6.41-15.07-5.6-29.11h4.92 l2.72,6.33c0.08,0.19,0.27,0.3,0.46,0.3c0.07,0,0.13-0.01,0.2-0.04c0.25-0.11,0.37-0.4,0.26-0.66l-2.55-5.94h4.63 c0.28,0,0.5-0.22,0.5-0.5S282.76,153.99,282.48,153.99z" fill="inherit"/></g><g id="change2_2"><path d="M310.08,127.28l-14.73,11.16c-1.93,1.47-4.59,1.53-6.59,0.17l-11.06-7.5l-11.06,7.5 c-2.01,1.36-4.66,1.29-6.59-0.17l-14.73-11.16c-2.25-1.71-2.95-4.83-1.52-7.27c9.54-16.36,28.74-14.67,33.1-14.04 c0.54,0.08,1.07,0.08,1.6,0c4.37-0.62,23.57-2.31,33.1,14.04C313.03,122.45,312.33,125.58,310.08,127.28z" fill="#F0F5FC"/></g><g id="change1_3"><path d="M307.42,87.98c-0.22-0.01-0.42-0.03-0.63-0.05c-3.24,5.67-7.69,10.34-12.95,13.53l1.52,15.65l-17.88,12.14 l-17.88-12.14l1.52-15.65c-5.25-3.19-9.71-7.86-12.95-13.53c-0.21,0.02-0.42,0.05-0.64,0.05c-10.17,0.33-16.76-13.78-13.6-19.69 c2.09-3.91,6.08-3.58,8.54-2.9c0.28-21.87,15.85-39.51,35.02-39.51c19.17,0,34.73,17.64,35.02,39.51c2.46-0.67,6.45-1.01,8.54,2.9 C324.18,74.2,317.58,88.31,307.42,87.98z" fill="#F2C0A7"/></g><g id="change3_3"><path d="M261.54,101.73c4.78,2.8,10.19,4.38,15.92,4.38c5.74,0,11.14-1.58,15.92-4.38c-1.93,5.26-8.33,9.13-15.92,9.13 C269.87,110.86,263.47,107,261.54,101.73z M264.55,72.93c2.5,0,4.53-2.03,4.53-4.53s-2.03-4.53-4.53-4.53 c-2.5,0-4.53,2.03-4.53,4.53S262.04,72.93,264.55,72.93z M294.92,68.39c0-2.5-2.03-4.53-4.53-4.53s-4.53,2.03-4.53,4.53 s2.03,4.53,4.53,4.53S294.92,70.9,294.92,68.39z M239.44,46.18c-1.89,9.23,0.45,15.38,1.94,18.14c0.56,1.04,1.49,1.84,2.59,2.28 l0.26,0.11c2.35,0.94,5.02-0.17,6.01-2.5l5.31-12.49c8.2-0.29,15.67-3.63,21.49-7.32c-1.14,3.9-1.39,7.45,2.01,6.46 c4.14-1.21,6.46-6.3,7.65-10.22c1.73,3.28,4.65,7.14,9.55,10.02c5.16,3.03,7.23,8.94,10.19,14.21c0.88,1.56,2.71,2.32,4.43,1.81 c1.52-0.45,2.72-1.61,3.23-3.11c2.84-8.42,9.96-35.94-17.79-37.18c-1.2-1.53-3.77-3.26-8.51-5.18c-20.04-8.12-32.26,8-32.26,8 c-13.35,2.95-20.86,10.83-21.53,14.77C233.35,47.9,239.44,46.18,239.44,46.18z M318.38,68.79c-0.09,0-8.14-0.57-10,7.67 c-0.06,0.27,0.11,0.54,0.38,0.6c0.04,0.01,0.07,0.01,0.11,0.01c0.23,0,0.44-0.16,0.49-0.39c1.67-7.38,8.65-6.92,8.95-6.9 c0.27,0.02,0.52-0.18,0.54-0.46C318.86,69.05,318.65,68.81,318.38,68.79z M245.59,76.68c0.05,0.23,0.26,0.39,0.49,0.39 c0.04,0,0.07,0,0.11-0.01c0.27-0.06,0.44-0.33,0.38-0.6c-1.86-8.25-9.92-7.68-10-7.67c-0.27,0.02-0.48,0.26-0.46,0.54 c0.02,0.28,0.27,0.48,0.54,0.46C236.93,69.76,243.92,69.3,245.59,76.68z M279.22,70.9c0.26-0.08,0.41-0.36,0.33-0.62 c-0.08-0.26-0.36-0.41-0.63-0.33c-0.17,0.05-4.16,1.38-2.8,8.57c0.04,0.24,0.25,0.41,0.49,0.41c0.03,0,0.06,0,0.09-0.01 c0.27-0.05,0.45-0.31,0.4-0.58C275.91,72.08,279.07,70.95,279.22,70.9z M296.08,59.02c0.19,0.3,0.51,0.47,0.85,0.47 c0.18,0,0.37-0.05,0.53-0.15c0.47-0.29,0.61-0.91,0.31-1.38c-3.18-5.04-9.91-3.46-10.19-3.39c-0.54,0.13-0.86,0.67-0.73,1.21 c0.13,0.54,0.67,0.86,1.21,0.73C288.12,56.49,293.66,55.18,296.08,59.02z M267.34,56.5c0.54,0.13,1.08-0.2,1.21-0.73 c0.13-0.54-0.2-1.08-0.73-1.21c-0.29-0.07-7.01-1.65-10.19,3.39c-0.29,0.47-0.15,1.08,0.31,1.38c0.17,0.1,0.35,0.15,0.53,0.15 c0.33,0,0.66-0.17,0.85-0.47C261.72,55.2,267.29,56.49,267.34,56.5z M311.35,119.58c-0.24,0.14-0.32,0.45-0.18,0.68 c1.28,2.2,0.68,5.05-1.39,6.62l-14.73,11.16c-1.77,1.34-4.18,1.4-6.01,0.16l-11.06-7.5c-0.17-0.11-0.39-0.11-0.56,0l-11.06,7.5 c-1.83,1.24-4.25,1.18-6.01-0.16l-14.73-11.16c-2.08-1.57-2.68-4.42-1.44-6.56l5.57-6.86c0.17-0.21,0.14-0.53-0.07-0.7 c-0.21-0.17-0.53-0.14-0.7,0.07l-5.62,6.92c-1.54,2.64-0.83,6.04,1.65,7.92l14.73,11.16c2.11,1.59,4.99,1.67,7.18,0.19l10.78-7.31 l10.78,7.31c1.05,0.71,2.25,1.06,3.46,1.06c1.31,0,2.62-0.42,3.72-1.25l14.73-11.16c2.48-1.88,3.19-5.29,1.65-7.92 C311.9,119.52,311.59,119.44,311.35,119.58z" fill="inherit"/></g><g id="change2_8"><path d="M327.6,293.81c0.19,2.76-1.58,5.28-4.26,6.01c-1.53,0.41-3.4,0.88-5.54,1.32l-4.99-80.5h9.7L327.6,293.81z M230.02,299.14c1.51,0.4,3,0.77,4.45,1.09l6.69-79.59h-8.74l-7.51,70.98C224.56,295.04,226.71,298.24,230.02,299.14z M305.28,358.12c2.16-11.94,3.25-23.19,3.72-32.9c0,0-13.92,5.83-29.31,0.89c-0.66-0.2-1.31-0.43-1.98-0.68 c-0.17-0.07-0.36-0.13-0.53-0.2c0,0-15,7.71-29.96,1.44l2.93,31.46H305.28z M311.19,380.88c-1.59-9.68-4.41-16.52-4.41-16.52 h-14.47h-12.78l-14.74-5.12l-24.98,9.41l-3.34,9.96c-2.01,5.98-5.7,11.22-10.55,15.27c-5.98,4.99-13.23,13.37-10.97,23.44 c3.58,15.99,36.22,18.36,52.66,6.23c1.77,1.65,3.98,3.05,6.36,4.24c11.5,5.73,25.16,5.73,36.66,0c5.22-2.6,9.67-6.25,10.25-11.25 c0.94-8.2-2.95-17.96-5.89-23.95C313.17,388.87,311.86,384.94,311.19,380.88z" fill="#F0F5FC"/></g><g id="change3_8"><path d="M323,169.39v51.24c0,0.28-0.22,0.5-0.5,0.5h-90.08c-0.28,0-0.5-0.22-0.5-0.5s0.22-0.5,0.5-0.5H322v-50.74 c0-0.28,0.22-0.5,0.5-0.5S323,169.11,323,169.39z M308.36,331.6c-0.16,0.08-16.54,7.51-30.43,0.14l-1.33-33.35l-1.54-44.96 c-0.01-0.28-0.26-0.5-0.52-0.48c-0.28,0.01-0.49,0.24-0.48,0.52l1.54,44.96l1.33,33.35c-1.78,1.05-13.6,7.41-28.87,1.54 c-0.26-0.1-0.55,0.03-0.65,0.29c-0.1,0.26,0.03,0.55,0.29,0.65c4.81,1.85,9.3,2.51,13.26,2.51c8.12,0,14.03-2.79,16.01-3.87 l0.72,18.2c0.01,0.27,0.23,0.48,0.5,0.48c0.01,0,0.01,0,0.02,0c0.28-0.01,0.49-0.24,0.48-0.52l-0.72-18.17 c14.22,7.16,30.64-0.3,30.8-0.38c0.25-0.12,0.36-0.41,0.24-0.66C308.91,331.59,308.61,331.48,308.36,331.6z M278.03,363.89 c-0.26-0.11-0.55,0.02-0.65,0.27c-0.03,0.08-3.18,7.79-4.7,18.26c-0.42,2.9-1.28,5.62-2.56,8.07c-3.03,5.79-7.94,16.88-6.88,26.09 c0.52,4.51,4.06,8.42,10.52,11.64c0.07,0.04,0.15,0.05,0.22,0.05c0.18,0,0.36-0.1,0.45-0.28c0.12-0.25,0.02-0.55-0.22-0.67 c-6.14-3.06-9.5-6.71-9.97-10.86c-1.03-8.95,3.8-19.83,6.78-25.52c1.33-2.55,2.23-5.38,2.67-8.39c1.5-10.34,4.6-17.95,4.63-18.02 C278.41,364.29,278.28,364,278.03,363.89z" fill="inherit"/></g><g id="change2_3"><path d="M311.55,360.73c0,7.68-8.67,13.91-19.38,13.91c-8.9,0-16.37-4.31-18.65-10.17 c-2.27,5.87-9.75,10.17-18.65,10.17c-10.7,0-19.38-6.23-19.38-13.91s8.67-13.91,19.38-13.91c8.9,0,16.37,4.31,18.65,10.17 c2.27-5.87,9.75-10.17,18.65-10.17C302.87,346.82,311.55,353.05,311.55,360.73z" fill="#F0F5FC"/></g><g id="change5_1"><path d="M286.18,82.12c-3.49,0.86-10.08,1.92-16.94,0.1c-1.21-0.32-2.22,0.94-1.67,2.07 c1.26,2.54,4.05,5.82,10.1,5.82c6.12,0,8.91-3.35,10.14-5.91C288.37,83.09,287.39,81.83,286.18,82.12z" fill="#AF2539"/></g><g id="change1_7"><path d="M242.03,49.19c-8.81,7.45-18.25,7.11-20.63,6.89L205.64,92.1l14.01,10.92c1.41,1.1,2.55,2.52,3.39,4.14 c2.89,5.57,2.34,13.67-1.97,20.86c-2.77,4.63-6.61,8.04-10.68,9.9c-5.26-3.97-12.02-9.3-18.44-14.99 c-8.88-7.85-17.09-16.39-19.7-22.93c-5.89-14.81,22.55-50.11,27.65-56.27l-0.19-0.11c0,0,8.21-12.94,15.23-25.32 c7.02-12.38,10.34-6,10.34-6s4.6-8.87,8.81-11.36s6.75,2.43,6.75,2.43c1.9-3.32,6.59-4.66,8.57-1.79c1.98,2.87-1.66,8.17-1.66,8.17 s4.66-1.15,4.98,4.09s-15.89,25.53-15.89,25.53s8.74-5.55,10.91-3.95C249.93,37,252.22,40.57,242.03,49.19z" fill="#F2C0A7"/></g><g id="change3_4"><path d="M320.14,405.87c-0.35,0.28-8.74,6.93-15.72,8.08c-0.19,0.03-0.37-0.04-0.48-0.2c-0.04-0.05-3.91-5.17-11.19-5.17 c-7.27,0-10.95,5.11-10.98,5.16c-0.12,0.17-0.32,0.25-0.52,0.2c-0.41-0.09-10.01-2.33-16.41-7.76c-1.44,1.56-7.38,7.22-18.27,7.77 c-0.01,0-0.02,0-0.03,0c-0.22,0-0.42-0.15-0.48-0.36c-0.07-0.26-1.93-6.4-11.25-6.4c-9.27,0-10.37,6.08-10.42,6.34 c-0.02,0.15-0.12,0.28-0.25,0.36c-0.13,0.08-0.29,0.08-0.43,0.03c-0.26-0.11-6.33-2.63-8.48-6.33c-0.14-0.24-0.06-0.54,0.18-0.68 c0.24-0.14,0.54-0.06,0.68,0.18c1.64,2.81,5.97,4.99,7.48,5.68c0.56-1.74,2.88-6.57,11.24-6.57c8.72,0,11.47,5.26,12.07,6.74 c11.67-0.73,17.46-7.7,17.52-7.77c0.09-0.11,0.21-0.17,0.35-0.18c0.14-0.01,0.27,0.03,0.37,0.12c5.58,4.94,14.29,7.34,16.04,7.78 c0.91-1.14,4.71-5.31,11.59-5.31c6.94,0,10.89,4.23,11.8,5.33c6.67-1.24,14.88-7.75,14.97-7.82c0.22-0.17,0.53-0.14,0.7,0.08 C320.39,405.38,320.35,405.69,320.14,405.87z M248.61,346.94c-0.05-0.27,0.13-0.53,0.4-0.59c15.33-2.94,22.78,5.89,24.64,8.56 c3-5.33,10.23-9.1,18.66-9.1c11.12,0,20.16,6.55,20.16,14.61c0,0.28-0.22,0.5-0.5,0.5s-0.5-0.22-0.5-0.5 c0-7.5-8.59-13.61-19.16-13.61s-19.16,6.11-19.16,13.61c0,0.07-0.15,4.61,2.63,7.16l2.52,2.29l4.75,4.65h19.34l5.52-6.21 c0.18-0.21,0.5-0.22,0.71-0.04c0.21,0.18,0.23,0.5,0.04,0.71l-5.57,6.28l-2.02,10.61c-0.04,0.24-0.25,0.41-0.49,0.41h-16.08 c-0.25,0-0.46-0.18-0.49-0.42l-1.62-10.58l-4.76-4.67l-2.51-2.27c-0.95-0.87-1.6-1.93-2.04-2.99l-12.69,10.68l-6.27,10.02 c-0.09,0.15-0.25,0.23-0.42,0.23h-13.13c-0.15,0-0.29-0.07-0.39-0.19c-0.09-0.12-0.13-0.27-0.1-0.42l2.1-9.94l-2.81-6.9 c-0.1-0.25,0.02-0.55,0.27-0.65c0.25-0.1,0.55,0.02,0.65,0.27l2.74,6.73h16.79l12.9-10.85c-0.62-2.02-0.57-3.81-0.56-3.93 c0-1.56,0.35-3.06,0.98-4.47c-0.98-1.56-8.01-11.66-23.93-8.6C248.92,347.38,248.66,347.21,248.61,346.94z M259.09,376.18h-16 l-1.92,9.09h12.23L259.09,376.18z M302.01,375.52h-18.58l1.49,9.75h15.24L302.01,375.52z M234.69,29.81 c0.09,0.06,0.18,0.09,0.28,0.09c0.16,0,0.32-0.08,0.42-0.22l13.15-19.53c0.15-0.23,0.09-0.54-0.14-0.69 c-0.23-0.15-0.54-0.09-0.69,0.14l-13.15,19.53C234.4,29.34,234.46,29.65,234.69,29.81z M230.08,25.17c0.16,0,0.31-0.08,0.41-0.21 c12.49-18.01,11.46-21.29,11.12-21.76c-0.16-0.23-0.49-0.31-0.71-0.15s-0.3,0.44-0.14,0.67c0.05,0.12,1,3.24-11.09,20.68 c-0.16,0.23-0.1,0.54,0.13,0.7C229.89,25.14,229.99,25.17,230.08,25.17z M217.86,28.63c0.08,0.05,0.17,0.07,0.26,0.07 c0.17,0,0.33-0.09,0.43-0.24c3.42-5.62,8.94-15.24,7.42-16.44c-0.22-0.17-0.53-0.13-0.7,0.08c-0.13,0.17-0.14,0.4-0.03,0.57 c0.04,0.27,0.1,2.72-7.53,15.26C217.55,28.18,217.62,28.48,217.86,28.63z M219.79,42.37c0.1,0.11,0.23,0.16,0.37,0.16 c0.12,0,0.24-0.04,0.34-0.13c5.48-5,13.66-0.98,13.74-0.94c0.15,0.07,0.32,0.07,0.47-0.01l2.75-1.54c0.24-0.13,0.33-0.44,0.19-0.68 c-0.14-0.24-0.44-0.33-0.68-0.19l-2.53,1.41c-1.47-0.66-9.18-3.74-14.61,1.21C219.62,41.85,219.6,42.16,219.79,42.37z" fill="inherit"/></g></g></svg>